<?xml version="1.0" standalone="no"?>
<!DOCTYPE svg PUBLIC "-//W3C//DTD SVG 20010904//EN"
 "http://www.w3.org/TR/2001/REC-SVG-20010904/DTD/svg10.dtd">
<svg version="1.0" xmlns="http://www.w3.org/2000/svg"
 width="225.000000pt" height="225.000000pt" viewBox="0 0 225.000000 225.000000"
 preserveAspectRatio="xMidYMid meet">
<metadata>
Created by potrace 1.14, written by Peter Selinger 2001-2017
</metadata>
<g transform="translate(0.000000,225.000000) scale(0.100000,-0.100000)"
fill="#000000" stroke="none">
<path d="M948 2234 c-425 -66 -782 -381 -902 -798 -172 -593 173 -1218 768
-1390 518 -151 1076 95 1316 579 158 319 158 681 0 1000 -219 440 -694 686
-1182 609z m232 -103 l45 -21 -42 3 c-24 1 -43 0 -43 -3 0 -3 16 -18 35 -33
19 -15 35 -23 35 -17 0 6 14 16 30 21 19 7 30 18 30 30 0 10 5 19 10 19 6 0
10 -9 10 -20 0 -24 0 -24 78 -1 73 22 90 19 216 -45 284 -144 497 -431 555
-746 8 -43 7 -48 -10 -48 -25 0 -35 -45 -20 -84 29 -73 30 -84 9 -111 l-20
-26 -29 33 -28 33 -2 -45 c-1 -35 -4 -26 -11 38 -9 71 -12 82 -27 77 -14 -4
-21 6 -35 51 l-18 57 -64 -64 c-60 -60 -64 -66 -64 -110 0 -52 -23 -85 -41
-58 -5 8 -9 21 -9 29 0 8 -7 55 -16 103 -13 72 -19 87 -33 83 -10 -3 -25 8
-43 34 -26 37 -31 40 -77 40 -34 0 -51 4 -55 15 -3 8 -15 15 -28 15 -12 0 -39
17 -60 37 -21 20 -40 34 -43 31 -3 -3 4 -30 16 -62 18 -46 26 -56 46 -56 13 0
26 7 30 16 5 13 9 12 29 -7 13 -12 24 -31 24 -41 0 -52 -75 -131 -153 -164
-70 -29 -60 -75 12 -54 26 7 31 6 31 -8 0 -31 -51 -126 -109 -207 l-58 -80 12
-85 13 -85 -50 -48 c-45 -44 -49 -52 -44 -82 5 -27 3 -33 -13 -38 -11 -2 -22
-17 -25 -34 -13 -57 -80 -103 -150 -103 -37 0 -46 3 -46 17 0 9 -14 66 -31
126 -22 78 -29 120 -24 146 19 110 18 129 -14 197 -21 46 -31 81 -31 115 0 45
-2 49 -24 49 -13 0 -27 7 -30 16 -5 13 -15 15 -54 10 -144 -19 -142 -19 -169
5 -14 13 -39 44 -54 68 -27 42 -29 51 -29 151 0 101 2 108 30 153 16 26 37 50
45 53 9 4 15 19 15 37 0 40 53 97 89 97 15 0 40 9 56 20 21 14 47 20 88 20
l57 0 0 -44 c0 -47 -7 -41 118 -93 7 -3 12 3 12 15 0 30 14 35 56 17 47 -19
128 -20 144 0 6 8 14 33 17 56 l6 42 -52 -7 -52 -7 -20 46 c-11 25 -24 45 -29
45 -26 0 -36 -13 -32 -39 7 -51 -16 -44 -35 10 -14 39 -29 59 -64 85 -26 19
-49 34 -53 34 -15 0 -3 -23 29 -59 33 -37 44 -61 27 -61 -4 0 -29 22 -56 49
-45 46 -49 48 -78 37 -34 -12 -98 -78 -98 -101 0 -22 -38 -38 -76 -30 l-34 6
0 59 0 60 50 0 c57 0 61 8 30 58 -11 18 -20 35 -20 37 0 3 38 23 85 44 80 37
85 42 85 70 0 34 2 36 31 21 17 -9 19 -7 19 16 0 25 -2 26 -40 20 -35 -5 -40
-4 -41 14 -1 11 -2 25 -3 30 -1 6 42 40 94 76 95 65 95 65 155 61 33 -2 80
-14 105 -26z m-218 -537 c-7 -12 -11 -13 -17 -4 -4 7 -2 16 6 21 18 11 23 4
11 -17z m-694 -843 c2 -23 -5 -45 -22 -72 -14 -21 -26 -51 -26 -66 -1 -63 -17
-55 -58 29 -41 82 -82 189 -82 214 0 8 33 -2 93 -30 86 -40 92 -45 95 -75z"/>
</g>
</svg>
